<svg width="80" height="81" viewBox="0 0 80 81" fill="none" xmlns="http://www.w3.org/2000/svg">
<path fill-rule="evenodd" clip-rule="evenodd" d="M40 0.578857C17.9 0.578857 0 18.9316 0 41.5906C0 59.7383 11.45 75.0665 27.35 80.5005C29.35 80.8594 30.1 79.629 30.1 78.5525C30.1 77.5784 30.05 74.3487 30.05 70.914C20 72.8108 17.4 68.402 16.6 66.0951C16.15 64.916 14.2 61.2763 12.5 60.3022C11.1 59.5333 9.1 57.6365 12.45 57.5852C15.6 57.5339 17.85 60.5585 18.6 61.7889C22.2 67.9919 27.95 66.2489 30.25 65.1724C30.6 62.5066 31.65 60.7123 32.8 59.687C23.9 58.6618 14.6 55.1245 14.6 39.4375C14.6 34.9775 16.15 31.2864 18.7 28.4156C18.3 27.3903 16.9 23.1866 19.1 17.5475C19.1 17.5475 22.45 16.4709 30.1 21.7512C33.3 20.8284 36.7 20.367 40.1 20.367C43.5 20.367 46.9 20.8284 50.1 21.7512C57.75 16.4196 61.1 17.5475 61.1 17.5475C63.3 23.1866 61.9 27.3903 61.5 28.4156C64.05 31.2864 65.6 34.9262 65.6 39.4375C65.6 55.1758 56.25 58.6618 47.35 59.687C48.8 60.9687 50.05 63.4294 50.05 67.2742C50.05 72.7595 50 77.1683 50 78.5525C50 79.629 50.75 80.9106 52.75 80.5005C60.6906 77.7518 67.5906 72.5192 72.4789 65.5393C77.3672 58.5594 79.9976 50.1835 80 41.5906C80 18.9316 62.1 0.578857 40 0.578857Z" fill="#C8A2C8"/>
</svg>
