<svg width="70" height="70" viewBox="0 0 70 70" fill="none" xmlns="http://www.w3.org/2000/svg">
<path fill-rule="evenodd" clip-rule="evenodd" d="M26.0015 24.3915H39.0005V30.8665C40.873 27.1425 45.675 23.7965 52.8885 23.7965C66.717 23.7965 70 31.2095 70 44.8105V70H56V47.908C56 40.1625 54.1275 35.7945 49.3605 35.7945C42.749 35.7945 40.0015 40.502 40.0015 47.9045V70H26.0015V24.3915V24.3915ZM1.995 69.405H15.995V23.7965H1.995V69.405V69.405ZM18.0005 8.925C18.001 10.0985 17.7683 11.2603 17.3159 12.3431C16.8634 13.4258 16.2003 14.4078 15.365 15.232C13.6724 16.9142 11.3813 17.8558 8.995 17.85C6.61286 17.8484 4.32709 16.9092 2.632 15.2355C1.79974 14.4085 1.13885 13.4254 0.687203 12.3425C0.235555 11.2596 0.00202696 10.0983 0 8.925C0 6.5555 0.945 4.2875 2.6355 2.6145C4.3291 0.938555 6.61584 -0.00104724 8.9985 8.75926e-07C11.3855 8.75926e-07 13.6745 0.941501 15.365 2.6145C17.052 4.2875 18.0005 6.5555 18.0005 8.925Z" fill="#C8A2C8"/>
</svg>
