<svg width="150" height="150" viewBox="0 0 150 150" fill="none" xmlns="http://www.w3.org/2000/svg">
<path d="M49.7649 73.4943L92.4362 80.6531L94.2421 73.7652L51.5708 66.6025L49.7649 73.4943V73.4943ZM55.4059 57.1791L94.9217 71.9519L98.5335 65.6056L59.0176 50.7425L55.4059 57.1791V57.1791ZM66.3577 41.586L99.8879 63.9768L105.422 58.6274L71.8918 36.2405L66.3577 41.586V41.586ZM88.0331 25L81.0378 29.1681L107.009 57.2694L114 53.0974L88.0331 25ZM48.8571 89.4446H92.4362V82.4663H48.8571V89.4446V89.4446Z" fill="#3F4C5F"/>
<path d="M103.107 98.0789V77.2222H111.714V105H34V77.2222H42.6071V98.0789H103.107Z" fill="#3F4C5F"/>
<circle cx="75" cy="75" r="73.5" stroke="#3F4C5F" stroke-width="3"/>
</svg>
